<svg width="366" height="366" viewBox="0 0 366 366" fill="none" xmlns="http://www.w3.org/2000/svg">
<path d="M183 366C284.068 366 366 284.068 366 183C366 81.9319 284.068 0 183 0C81.9319 0 0 81.9319 0 183C0 284.068 81.9319 366 183 366Z" fill="url(#paint0_radial_47_4)"/>
<path d="M94.1738 82.806L100.274 82.686L100.332 80.086L94.1738 82.806Z" fill="#8F8F8F"/>
<path d="M94.1738 82.805L95.8348 76.41L100.335 80.082L94.1738 82.805Z" fill="#424242"/>
<path d="M107.225 116.176L108.773 122.867L112.415 122.014L107.225 116.176Z" fill="#8F8F8F"/>
<path d="M107.225 116.176L114.651 117.825L112.415 122.014L107.225 116.176Z" fill="#424242"/>
<path d="M260.84 97.248L283.773 109.895L289.573 100.347L260.84 97.248Z" fill="#8F8F8F"/>
<path d="M260.84 97.249L280.74 77.041L289.574 100.347L260.84 97.249Z" fill="#424242"/>
<path d="M199.667 49.416L205.114 43.516L201.895 40.559L199.667 49.416Z" fill="#8F8F8F"/>
<path d="M199.665 49.416L196.376 41.158L201.893 40.564L199.665 49.416Z" fill="#424242"/>
<path d="M183.83 89.687L187.857 84.746L185.823 82.946L183.83 89.687Z" fill="#8F8F8F"/>
<path d="M183.831 89.687L179.859 84.042L185.824 82.942L183.831 89.687Z" fill="#424242"/>
<path d="M137.661 286.286L159.903 305.494L170.325 293.351L137.661 286.286Z" fill="#8F8F8F"/>
<path d="M137.661 286.285L167.478 273.236L170.328 293.35L137.661 286.285Z" fill="#424242"/>
<path d="M293.139 202.762L280.62 195.253L276.552 202.082L293.139 202.762Z" fill="#8F8F8F"/>
<path d="M293.139 202.763L279.655 211.684L276.555 202.084L293.139 202.763Z" fill="#424242"/>
<path d="M298.888 267.562L293.27 261.5L290.181 265.9L298.888 267.562Z" fill="#8F8F8F"/>
<path d="M298.888 267.561L290.226 269.361L290.181 265.895L298.888 267.561Z" fill="#424242"/>
<path d="M41 181.338L47.873 183.699L46.661 180.599L41 181.338Z" fill="#8F8F8F"/>
<path d="M41 181.338L46.962 176.338L46.662 180.598L41 181.338Z" fill="#424242"/>
<path d="M47.8731 183.699L46.9631 176.342L46.6631 180.602L47.8731 183.699Z" fill="#030303"/>
<path d="M324.058 175.773L317.752 177.053L318.345 180.332L324.058 175.773Z" fill="#8F8F8F"/>
<path d="M324.058 175.773L323.258 182.358L318.348 180.332L324.058 175.773Z" fill="#424242"/>
<path d="M83.0182 155.546L70.4722 172.223L80.0082 171.664L83.0182 155.546Z" fill="#8F8F8F"/>
<path d="M83.0183 155.546L91.3773 176.265L80.0083 171.665L83.0183 155.546Z" fill="#424242"/>
<path d="M70.4722 172.223L91.3722 176.265L80.0032 171.665L70.4722 172.223Z" fill="#030303"/>
<path d="M199.897 273.587L191.379 272.736L190.929 277.375L199.897 273.587Z" fill="#8F8F8F"/>
<path d="M199.897 273.587L194.976 281.687L190.929 277.371L199.897 273.587Z" fill="#424242"/>
<path d="M105.972 270.097L112.942 278.528L117.353 272.949L105.972 270.097Z" fill="#8F8F8F"/>
<path d="M105.972 270.098L117.552 268.365L117.352 272.949L105.972 270.098Z" fill="#424242"/>
<path d="M45.543 112.19L62.277 137.975L66.321 124.501L45.543 112.19Z" fill="#8F8F8F"/>
<path d="M45.543 112.19L78.431 111.097L66.321 124.497L45.543 112.19Z" fill="#424242"/>
<path d="M62.2769 137.975L78.4308 111.097L66.3209 124.497L62.2769 137.975Z" fill="#030303"/>
<path d="M143.085 98.857L144.236 89.495L138.129 90.037L143.085 98.857Z" fill="#8F8F8F"/>
<path d="M143.085 98.857L135.133 92.629L138.133 90.037L143.085 98.857Z" fill="#424242"/>
<path d="M164.153 59.562L156.153 38L144.898 41.9L164.153 59.562Z" fill="#8F8F8F"/>
<path d="M164.152 59.562L140.452 60.362L144.899 41.903L164.152 59.562Z" fill="#424242"/>
<path d="M97.2613 295.129L97.3953 260.373L78.4673 260.355L97.2613 295.129Z" fill="#8F8F8F"/>
<path d="M97.2611 295.129L62.5991 278.392L78.4701 260.356L97.2611 295.129Z" fill="#424242"/>
<path d="M42.7012 233.97L69.5582 245.917L76.0462 232.142L42.7012 233.97Z" fill="#8F8F8F"/>
<path d="M42.7012 233.97L63.1372 211.592L76.0462 232.143L42.7012 233.97Z" fill="#424242"/>
<path d="M249.321 302.351L255.676 300.408L254.741 297.095L249.321 302.351Z" fill="#8F8F8F"/>
<path d="M249.321 302.353L249.49 295.503L254.742 297.096L249.321 302.353Z" fill="#424242"/>
<path d="M284.934 132.947L283.787 141.414L288.159 142.103L284.934 132.947Z" fill="#8F8F8F"/>
<path d="M284.933 132.947L292.842 136.828L288.158 142.103L284.933 132.947Z" fill="#424242"/>
<path d="M317.598 149.987L306.635 139.887L301.283 145.452L317.598 149.987Z" fill="#8F8F8F"/>
<path d="M317.598 149.987L304.148 157.421L301.282 145.452L317.598 149.987Z" fill="#424242"/>
<path d="M213.885 78.535L210.765 87.191L215.484 88.877L213.885 78.535Z" fill="#8F8F8F"/>
<path d="M213.885 78.535L221.044 85.788L215.484 88.877L213.885 78.535Z" fill="#424242"/>
<path d="M115.889 305.39L124.884 305.104L124.713 300.204L115.889 305.39Z" fill="#8F8F8F"/>
<path d="M115.889 305.389L119.9 296.265L124.713 300.205L115.889 305.389Z" fill="#424242"/>
<path d="M267.349 134.673L262.975 138.485L264.9 140.792L267.349 134.673Z" fill="#8F8F8F"/>
<path d="M267.349 134.673L269.649 140.194L264.896 140.794L267.349 134.673Z" fill="#424242"/>
<path d="M228.58 293.212L198.671 306.253L219.145 319.562L228.58 293.212Z" fill="#8F8F8F"/>
<path d="M228.58 293.212L224.01 327.839L219.145 319.562L228.58 293.212Z" fill="#424242"/>
<path d="M198.671 306.253L224.012 327.835L219.147 319.558L198.671 306.253Z" fill="#030303"/>
<path d="M257.633 240.795L232.46 252.514L244.004 257.831L257.633 240.795Z" fill="#8F8F8F"/>
<path d="M257.633 240.795L254.468 270.352L244.004 257.83L257.633 240.795Z" fill="#424242"/>
<path d="M232.46 252.514L254.469 270.352L244.004 257.831L232.46 252.514Z" fill="#030303"/>
<defs>
<radialGradient id="paint0_radial_47_4" cx="0" cy="0" r="1" gradientUnits="userSpaceOnUse" gradientTransform="translate(183 183) scale(183)">
<stop stop-color="#CA2026"/>
<stop offset="1" stop-opacity="0.341"/>
</radialGradient>
</defs>
</svg>
