<svg width="56" height="53" viewBox="0 0 56 53" fill="none" xmlns="http://www.w3.org/2000/svg">
<path d="M0 0H55.3662L20.8779 43.836L0.000976562 52.212L0 0Z" fill="url(#paint0_linear_153_4)"/>
<path d="M15.1182 21.875H14.3135L11.4307 17.4102C11.3577 17.2982 11.2979 17.181 11.251 17.0586H11.2275C11.2484 17.1784 11.2588 17.4349 11.2588 17.8281V21.875H10.6025V16.2734H11.4541L14.2588 20.668C14.376 20.8503 14.4515 20.9753 14.4854 21.043H14.501C14.4749 20.8815 14.4619 20.6068 14.4619 20.2188V16.2734H15.1182V21.875ZM19.5557 21.875H16.5869V16.2734H19.4307V16.8672H17.2432V18.7305H19.2666V19.3203H17.2432V21.2812H19.5557V21.875ZM27.2744 16.2734L25.6924 21.875H24.9229L23.7705 17.7812C23.721 17.6068 23.6911 17.4167 23.6807 17.2109H23.665C23.6494 17.4036 23.6156 17.5911 23.5635 17.7734L22.4033 21.875H21.6416L20.001 16.2734H20.7236L21.915 20.5703C21.9645 20.75 21.9958 20.9375 22.0088 21.1328H22.0283C22.0413 20.9948 22.0817 20.8073 22.1494 20.5703L23.3877 16.2734H24.0166L25.2041 20.6016C25.2458 20.75 25.277 20.9245 25.2979 21.125H25.3135C25.3239 20.9896 25.359 20.8099 25.4189 20.5859L26.5635 16.2734H27.2744Z" fill="white"/>
<defs>
<linearGradient id="paint0_linear_153_4" x1="2.38075" y1="26.106" x2="52.764" y2="26.106" gradientUnits="userSpaceOnUse">
<stop stop-color="#206FCA"/>
<stop offset="1" stop-color="#000850"/>
</linearGradient>
</defs>
</svg>
